<svg xmlns="http://www.w3.org/2000/svg" viewBox="0 0 64 64" role="img" aria-label="River Hyacinth Monitor">
  <path fill="#22c55e" d="M32 58c-9.5-3.7-16.5-12.8-16.5-23.4C15.5 21.2 22.9 11 32 6c9.1 5 16.5 15.2 16.5 28.6C48.5 45.2 41.5 54.3 32 58z"/>
  <path fill="#16a34a" d="M32 58c-6.9-6.3-10.9-14.1-10.9-23.2C21.1 21.8 26.1 12.4 32 8c5.9 4.4 10.9 13.8 10.9 26.8C42.9 43.9 38.9 51.7 32 58z" opacity=".55"/>
  <path fill="#0ea5e9" d="M8 44c7.1 6.3 15.5 9.5 24 9.5S48.9 50.3 56 44c-7.6 3.2-15.8 4.8-24 4.8S15.6 47.2 8 44z"/>
</svg>
